<mxfile host="app.diagrams.net" modified="2023-04-04T02:03:49.931Z" agent="Mozilla/5.0 (X11; Linux x86_64) AppleWebKit/537.36 (KHTML, like Gecko) Chrome/110.0.0.0 Safari/537.36" version="21.1.2" etag="uR--k6YGSsKRQYDfUlET" type="github">
  <diagram name="Page-1" id="RiE4NRNciGlp9F8vxFcM">
    <mxGraphModel>
      <root>
        <mxCell id="0" />
        <mxCell id="1" parent="0" />
      </root>
    </mxGraphModel>
  </diagram>
</mxfile>
